<?xml version="1.0" encoding="iso-8859-1"?>
<!-- Generator: Adobe Illustrator 19.0.0, SVG Export Plug-In . SVG Version: 6.00 Build 0)  -->
<svg version="1.1" id="Layer_1" xmlns="http://www.w3.org/2000/svg" xmlns:xlink="http://www.w3.org/1999/xlink" x="0px" y="0px"
	 viewBox="0 0 512 512" style="enable-background:new 0 0 512 512;" xml:space="preserve">
<g>
	<g>
		<path d="M256,0C114.842,0,0,114.84,0,256s114.842,256,256,256s256-114.84,256-256S397.158,0,256,0z M256,474.537
			c-120.501,0-218.537-98.036-218.537-218.537S135.499,37.463,256,37.463S474.537,135.499,474.537,256S376.501,474.537,256,474.537z
			"/>
	</g>
</g>
<g>
	<g>
		<path d="M293.463,224.781v37.463c19.945,0,43.388,2.601,71.664,7.951l6.964-36.812
			C341.493,227.594,315.773,224.781,293.463,224.781z"/>
	</g>
</g>
<g>
	<g>
		<ellipse cx="196.683" cy="243.512" rx="21.854" ry="37.463"/>
	</g>
</g>
<g>
	<g>
		<path d="M300.693,337.422c-8.346,24.717-22.965,36.732-44.691,36.732c-21.796,0-36.805-12.276-44.611-36.487l-35.656,11.496
			c12.797,39.69,42.054,62.454,80.267,62.454c17.361,0,33.521-4.95,46.736-14.316c15.074-10.685,26.328-26.798,33.452-47.893
			L300.693,337.422z"/>
	</g>
</g>
<g>
	<g>
		<path d="M293.462,170.787v37.463c42.939,0,81.334,7.658,117.378,23.408l15-34.329C384.97,179.47,341.669,170.787,293.462,170.787z
			"/>
	</g>
</g>
<g>
	<g>
		<path d="M211.034,126.445c-44.171,19.309-80.369,44.609-110.664,77.343l27.494,25.446c26.718-28.869,58.831-51.262,98.177-68.463
			L211.034,126.445z"/>
	</g>
</g>
<g>
</g>
<g>
</g>
<g>
</g>
<g>
</g>
<g>
</g>
<g>
</g>
<g>
</g>
<g>
</g>
<g>
</g>
<g>
</g>
<g>
</g>
<g>
</g>
<g>
</g>
<g>
</g>
<g>
</g>
</svg>
